<svg width="40" height="40" viewBox="0 0 40 40" fill="none" xmlns="http://www.w3.org/2000/svg">
<circle cx="20" cy="20" r="19.5" fill="white" stroke="white"/>
<g clip-path="url(#clip0_160_2086)">
<path d="M17.5763 17.5C17.7722 16.943 18.1589 16.4734 18.6679 16.1742C19.1769 15.8751 19.7754 15.7657 20.3573 15.8656C20.9392 15.9654 21.467 16.2679 21.8472 16.7196C22.2274 17.1712 22.4355 17.7429 22.4346 18.3333C22.4346 20 19.9346 20.8333 19.9346 20.8333M20.0013 24.1666H20.0096M28.3346 20C28.3346 24.6023 24.6037 28.3333 20.0013 28.3333C15.3989 28.3333 11.668 24.6023 11.668 20C11.668 15.3976 15.3989 11.6666 20.0013 11.6666C24.6037 11.6666 28.3346 15.3976 28.3346 20Z" stroke="#2AE1E1" stroke-width="2" stroke-linecap="round" stroke-linejoin="round"/>
</g>
<defs>
<clipPath id="clip0_160_2086">
<rect width="20" height="20" fill="white" transform="translate(10 10)"/>
</clipPath>
</defs>
</svg>
