<?xml version="1.0" encoding="UTF-8" standalone="no"?>
<!DOCTYPE svg PUBLIC "-//W3C//DTD SVG 1.1//EN" "http://www.w3.org/Graphics/SVG/1.1/DTD/svg11.dtd">
<svg width="100%" height="100%" viewBox="0 0 2481 3508" version="1.1" xmlns="http://www.w3.org/2000/svg" xmlns:xlink="http://www.w3.org/1999/xlink" xml:space="preserve" xmlns:serif="http://www.serif.com/" style="fill-rule:evenodd;clip-rule:evenodd;stroke-linejoin:round;stroke-miterlimit:2;">
    <g id="Layer-1" serif:id="Layer 1" transform="matrix(4.166667,0,0,4.166667,-56,-19)">
        <g transform="matrix(1,0,0,1,311.8221,414.4079)">
            <path d="M0,-78.615C-11.067,-77.568 -22.412,-71.481 -29.399,-62.874C-31.046,-60.846 -38.159,-49.865 -38.594,-47.944C-40.013,-41.667 -38.627,-27.852 -36.451,-21.619C-24.878,11.534 21.083,16.842 39.875,-13.07C58.62,-42.905 34.921,-81.918 0,-78.615M-37.97,-100.632C20.378,-136.678 93.528,-86.562 78.527,-18.783C63.649,48.443 -27.592,62.357 -62.433,2.8C-74.824,-18.38 -72.386,-32.789 -72.193,-55.856C-71.82,-100.412 -71.9,-144.797 -71.067,-189.351C18.648,-240.019 133.591,-191.146 160.278,-92.24C172.141,-48.274 162.118,-13.951 144.291,25.955C127.614,63.288 105.198,100.487 82.059,134.153C78.704,139.034 72.33,149.916 68.654,153.433C60.322,161.404 51.826,151.218 49.158,143.357C48.036,140.054 46.283,129.625 46.25,126.199C46.002,100.428 81.911,34.843 97.13,12.266C99.499,8.752 100.98,5.551 105.455,4.248C109.183,3.162 114.391,4.543 116.883,2.445C118.382,1.183 121.441,-7.498 122.374,-9.963C134.232,-41.302 135.07,-67.882 121.946,-99.05C96.405,-159.703 25.28,-191.562 -36.843,-167.585L-37.97,-100.632Z" style="fill:rgb(35,31,32);fill-rule:nonzero;"/>
        </g>
        <g transform="matrix(1,0,0,1,371.9152,322.943)">
            <path d="M0,256.961C-11.99,273.865 -23.053,291.661 -35.5,308.234C-40.361,314.707 -47.024,323.647 -52.525,329.342C-53.324,330.169 -53.881,331.152 -55.247,330.879C-98.188,271.501 -142.022,212.295 -176.311,147.258C-195.402,111.047 -214.677,71.536 -212.479,29.36C-212.207,24.14 -209.959,16.005 -210.112,11.476C-210.416,2.473 -214.142,1.693 -210.507,-9.911C-206.733,-21.956 -184.113,-59.093 -175.767,-69.336C-171.812,-74.191 -167.36,-73.044 -168.303,-66.554C-177.129,-50.665 -187.443,-35.464 -195.77,-19.299C-197.003,-16.906 -200.007,-12.924 -198.066,-10.778C-195.25,-7.664 -193.857,-10.051 -192.073,-12.492C-185.035,-22.126 -178.524,-37.718 -172.148,-48.598C-170.912,-50.709 -165.3,-61.053 -164.011,-61.58C-161.278,-62.699 -158.475,-60.287 -159.895,-57.381L-186.863,-6.428C-185.861,-1.511 -183.203,-2.231 -180.708,-5.797C-173.092,-16.684 -166.601,-32.814 -159.693,-44.706C-157.2,-48.998 -152.708,-56.37 -150.623,-47.215L-175.756,-0.066L-172.541,3.168L-169.791,1.222L-148.286,-38.744C-140.84,-41.214 -140.233,-36.569 -142.552,-30.678C-147.426,-18.298 -162.975,11.075 -172.42,19.607C-174.108,21.131 -176.834,21.617 -177.464,23.902C-182.64,61.856 -163.879,98.367 -146.734,130.917C-120.185,181.32 -87.551,228.24 -54.495,274.481L-52.888,274.376L-40.863,256.961L0,256.961Z" style="fill:rgb(35,31,32);fill-rule:nonzero;"/>
        </g>
    </g>
</svg>
